<mxfile host="app.diagrams.net" modified="2020-09-03T17:26:43.433Z" agent="5.0 (Macintosh)" etag="LDw4PPR1czUYy9jhHBp8" version="13.6.6" type="github">
  <diagram id="ekTlztnBOgmEbEXwK05-" name="Page-1">
    <mxGraphModel dx="786" dy="483" grid="1" gridSize="10" guides="1" tooltips="1" connect="1" arrows="1" fold="1" page="1" pageScale="1" pageWidth="850" pageHeight="1100" math="0" shadow="0">
      <root>
        <mxCell id="0" />
        <mxCell id="1" parent="0" />
        <mxCell id="LaCzYHrvshPpCWfQxyUo-3" value="&lt;div&gt;Site Viewing&lt;/div&gt;&lt;div&gt;Last Update&lt;br&gt;&lt;/div&gt;" style="rounded=1;whiteSpace=wrap;html=1;shadow=1;fillColor=#f5f5f5;strokeColor=#666666;fontColor=#333333;" vertex="1" parent="1">
          <mxGeometry x="60" y="110" width="390" height="60" as="geometry" />
        </mxCell>
        <mxCell id="LaCzYHrvshPpCWfQxyUo-4" value="&lt;div align=&quot;left&quot;&gt;Total Images per Day&lt;/div&gt;" style="rounded=1;whiteSpace=wrap;html=1;shadow=1;fillColor=#f5f5f5;strokeColor=#666666;fontColor=#333333;" vertex="1" parent="1">
          <mxGeometry x="450" y="110" width="400" height="60" as="geometry" />
        </mxCell>
        <mxCell id="LaCzYHrvshPpCWfQxyUo-7" value="" style="rounded=0;whiteSpace=wrap;html=1;shadow=1;fillColor=#dae8fc;strokeColor=#6c8ebf;" vertex="1" parent="1">
          <mxGeometry x="60" y="170" width="790" height="40" as="geometry" />
        </mxCell>
        <mxCell id="LaCzYHrvshPpCWfQxyUo-8" value="" style="rounded=0;whiteSpace=wrap;html=1;shadow=1;fillColor=#dae8fc;strokeColor=#6c8ebf;" vertex="1" parent="1">
          <mxGeometry x="60" y="280" width="790" height="70" as="geometry" />
        </mxCell>
        <mxCell id="LaCzYHrvshPpCWfQxyUo-15" value="&lt;div align=&quot;left&quot;&gt;Back Arrow to All Sites View&lt;/div&gt;" style="rounded=1;whiteSpace=wrap;html=1;align=left;shadow=1;fillColor=#dae8fc;strokeColor=#6c8ebf;" vertex="1" parent="1">
          <mxGeometry x="60" y="80" width="790" height="30" as="geometry" />
        </mxCell>
        <mxCell id="LaCzYHrvshPpCWfQxyUo-16" value="Container" style="swimlane;shadow=1;" vertex="1" parent="1">
          <mxGeometry x="60" y="350" width="400" height="200" as="geometry" />
        </mxCell>
        <mxCell id="LaCzYHrvshPpCWfQxyUo-19" value="Container" style="swimlane;shadow=1;" vertex="1" parent="1">
          <mxGeometry x="60" y="550" width="200" height="200" as="geometry" />
        </mxCell>
        <mxCell id="LaCzYHrvshPpCWfQxyUo-20" value="Container" style="swimlane;shadow=1;" vertex="1" parent="1">
          <mxGeometry x="260" y="550" width="200" height="200" as="geometry">
            <mxRectangle x="260" y="550" width="90" height="23" as="alternateBounds" />
          </mxGeometry>
        </mxCell>
        <mxCell id="LaCzYHrvshPpCWfQxyUo-22" value="Search Bar" style="text;html=1;align=center;verticalAlign=middle;resizable=0;points=[];autosize=1;" vertex="1" parent="1">
          <mxGeometry x="730" y="85" width="80" height="20" as="geometry" />
        </mxCell>
        <mxCell id="LaCzYHrvshPpCWfQxyUo-23" value="" style="shape=image;verticalLabelPosition=bottom;labelBackgroundColor=#ffffff;verticalAlign=top;aspect=fixed;imageAspect=0;image=data:image/jpeg,/9j/4AAQSkZJRgABAQAAAQABAAD/2wCEAAkGBxETEhISEhIWFRUXFhYVFRUYFxUYFxYWFRUWGBUXGBUYHSggGCAlGxUXIjEhJSkrLi4uGB8zODMsNygtLysBCgoKDg0OFxAQGi8lHyUvLS01LS0tOC0tLS0tNy0tKysvLS0tLS01LS0tLS0rLS0tLS0tKy0tKy0rLSstLS01Lf/AABEIAOEA4QMBIgACEQEDEQH/xAAbAAEAAgMBAQAAAAAAAAAAAAAAAgcBAwYFBP/EAD8QAAEDAgMEBwUGBAYDAAAAAAEAAgMEEQUhMQYHEkETIlFhcYGRMkJSYqEUI3KCkrEzQ6KyFSRTY3PwdKPB/8QAFwEBAQEBAAAAAAAAAAAAAAAAAAIBA//EACERAQEAAgICAgMBAAAAAAAAAAABAhEhQRIxQlEyUnFh/9oADAMBAAIRAxEAPwC8UREBYa66g5ykxBJERAREQERRcUEkULd6k0oMoiICIiAiIgLDXXzUHOUmaIJIiICIiAiKJKCSKCkCgyiIgLW9ym4ZKLGoDGqaIgIiICIiAoN5+KmsOCCKk0IAsoCIiAiIgLW9yk8XCwxvNAa1TREBERAREQFBqmolqDCkAgCygIiICIiAiIgIiICIiAiIgIi1zTNaLucGjtJAHqUGxF5jtoaIGxq4Aezpo7/3L7Kasik/hyMf+FzXfsUG9ERAREQEREBERAREQEREBERAREQEREBERAREQEREBcltdvAo6G7CTLN/osIuOzjdozzz7AVy+8XeI8PNFh5JkvwSSsHE4OJt0UQGr75EjQ5DPTOxO6pjQJ8RHHIet0F7taTneV38x3aPZ19pXMdc1Ny3xHhnarHcTJFIx0cd7fcgNaOXWqX2uR8pB7lvp9z9bMeOrq2B3b95O7zc8tz9Vcn3cTPdYxo7mta0fQBcjim9DC4SQJjMRyhaXjykNmHyckyvUZcZ25tu5SK2dY+/dE0D04j+6+Ko3LStPFBWMLhpxRujP62udb0XrnfPScqWot39ED6ca9DDt7eGyEB/TQ8vvI7j1iLreJst3mzWDjZn7RYZ1iXyxDW5NRFbvJ+8Y3v6q6rZPexS1BbHUgU8hyDr3hcfx+5+bLvK7vDsRhnYJIJWSsPvMcHC/ZcaHuXI7Z7tqWsDpIgIJ9eNo6jz/uMGt/iGfjos3L7bqz07cFZVH7LbXVeEzfYa9rjC0gc3GJp0fEffj+UaWNswWm7KeZr2texwc1wDmuBuHNIuCCNQQps0qXbYiIsaIiICIiAiIgIiICIiAiKLigkihbxUmlBlERAXAb2tsDRwCCF1p5gesDnFFo5/cToPzHku9kkDQXONgASSeQGZKo3ZSnOMYxJUyi8MZ6UtOnA02p4iO+3ERoeF/aqxndTlenXbqdiBTxtrKhn+Ye27GkfwWEZZHR7hqeQy7b9LtntdBh8QfJ1pHXEUQPWeRqflaMru/ckA+pjWKR0sEtRKbMjaXHtPINHeSQB3kKl9lMGmxutlq6u/QsI4wCbHmynYeTQDcnXPtdcbOeay8cRCnosVx55ke/o6YONibiFtjoyPWVw7TzvmNF3eC7qcOiAMrX1Du2Rxa3yjZYW8brtYo2sa1jGhrGgNa1oAAAyAAGQC3MGSy5XpsxnbxBsZhlrfYKbzhjJ9SLrzMT3Z4XMMoOidydE4st+X2D5tXYIs3W6ikMZ2DxDDHmqoJnyMbm4sFpQ0fHHm2VvgD+Ears93u8SOutBNwx1NrgD2JgBcll9DbMt7MxfO3eKod62xXRXxGjHAWuD5msy4XXuJ2W9kg2Lv1cjet+XFTZ48x3W3GyUWIQFjrNlbcwy82u7D2tNgCPPUBcBuo2llpqh2F1d29dzYg7+XKCS6O/wu1HfpfiC7rd3tT9vpQ91umjPBMBl1rZPA7HDPxuOS5DfHs+Q+Kvgaeku2N5HJwzilPeLWv+DsSfrS/tFsIvH2VxM1NLDOcnuaOkaNBI3qvA7uIG3dZeu0qFsoiICIiAiIUAlYabi61uddbGjJBlERAUBzU1ghBEqQCALKAiIg5PeniBhwypI1eGwjwlcGP/oLvReTuSw0R0DprdaeVxv8kZ6No9WvP5lo37ykUVO0e9Utv3gQzG3rb0XT7u4w3DKIDnCx3m8cR+pV/FHycRv2xdwbTUbLniJmeBqeHqxNtzu4uPi0LvNk8GbR0kNONWtBkPxSOzkd+om3dYKsttPvdoqaM6NdSst8vF0hH9ZV0NbzKX1IT3awxqmiKFiIiAoTRNc1zXAFrgWuBzBBFiCPBTRBSGxPFhuOSUZJ6ORzoc+bSOkp3HtNrN/OVbW0dF01LURWuSx3CPmA4mf1AKqd6beixqjlGpFK/wDMyocL+jW+iuohXl1UY9xW+5nEjJFOw5C7JWC9zZ4IOf5B6qyAFTG55/DidXEPZbFI1o5ARTsa0DyJV0LM/bcfQiIpUIiIBK1ON1N4RjUBrVJEQEREBERAREQEREFc79IC6ghcPcqWE+Do5W/u5q6HdtOH4ZREcogzzjJYfq1S3iYYajDqqMAlwZ0jQNS6JwkAHjw281y+4zFg+lmpyReKTiaP9uXMf1h/qFfxR8nP7w3fZ8eppzk0mlkJ5cLZCx/o1v1V1qsd+eBmSniqmi5hJZJ/xy2F/J4b+orqN3e0IraKJ5N5WARTDnxsAHF+YWd+buS8yUnFsdMiIoWIiICIvmxKujgikmldwsjaXuPcBy7T2DmgpzeM7p8dpYW58JpYzbkTKZHHyY8HyV1kqld19LJXYpPiMoyYXSdwklBbGwHnwx8Xo1WVt/iv2bD6mW9nFhjj/HJ1G+hdfwBV5dRGPdVtuTPS19XOBkYnHw6aYOH9pV1KsdxOGcFNPUEW6WQMb3shBF/1vePJWcsz9tw9CIilQiIgIiICIiAiIgIiICIiAiIgKiS44JjJJBFO8nTQ08p5d8bh42Z8yvZcpvF2SFfTWZYTx3dC48yfajJ5B1h4ENPJVjdJyjpKiGOaJzHAPjkYWkatcx4sfEEFUd/mdn685GSnk/8AdEDlnoJWX+vIOXs7rttjARhtbePhcWQuflwOBt0D76Z+yfLsVn45g0FXC6CoYHsPkWnk5rtWkdq38bqs/LmM4JjEFVE2aB4ex3q082uGrSOwr71SGIbHYrhUrp6B75YuZYLu4R7ssHv/AImg8z1V6eD757Dhq6U8QyLoSNRreKQjh/UU8fo8vtbiLgxvawy1yZgewxG/0Nl5WKb56doP2emkeeRkLI2eORc76BZ41vlFnTStY0ue4Na0EucSAABqSToFSe3W1MuKzsoKFpdFx65jpnt993wxt1z7L8gtDo8axxw4h0dNcHMOjgA1BAPWmPZqL/CrT2O2Pp8PYRH15XAdJM4Did3D4W93rc5reMf6znJ9OyGz0dDTMp2ZkdaR9rccjvad/wDAOQACrDe3jL6yrhw2m63A8BwGjqh/VAJ7GNJueXE74V1+8rbptFGYIXA1T25DXoWn+Y7v+Ec9dAqr3dY5DR1zJqphLXtcOldcmMvNjLn7QJDgTrm7vB3GX2zKz0v7AMKZS00NOzMRsDb/ABH3nHvLrnzXoKLHggEEEEXBGYIOhBUlzdBERAREQEREBERAREQEREBRa66g511NgQSREQEREHC7xN30dcDNDwsqQLXPsSgDJr+w8g7yNxa3G7M7wavD3/Y8Rikc1lgL/wAaMaDMm0rOw38CcgrsXlY7gNNVtDKiFsgHsuI6zT8rtR+x5qpl1U3HuNmCY7S1bOOmmZIOYB6zb8nMPWae4gKOKbP0dRnPTRSn4nMaXDwda49VW2K7qqiN/SUVQDbQP+6lA+WeMZnyHevgdiO01GbFk0zRpeJs/q6O7vUrfH6rN/cd8/drhJN/so8pJgPQPXo4dsfh8BDoqSFrho4sDnDwc65CrEbyMcGRom3/APFqR9ONRO0+0tT1Y4JI78203Rj9c9wPVb45fbPLH6XLW1kULDJLI2Ng1c9wa0eJOSq3bLe00B0WHi50NQ4dVv8Axsd7R+Z2Xc5edTbssUrHiSvqeD8bzNIO0NaDwN8neS2bb7rhT07ZqIySOjF5muN3vbr0jLAWLfhAzGmYzSY7bbk+fYLd9LWOFZX8XROPGGuJ6SoJ955OYYe3V3cMzYW3OxMNbThjGtjlibaBwFmtAH8Mge4bDwyI7D8O7LbltdGIZnAVLG56ATMH8xvf8QHjocuzrqyOFjpZXhjGi7nE2A/6crc7rLbskmlRbsdsJKWX/DK7iYA7gjLtYX/6Tj8B906C490i1xtNx2Kjdpql2LVd6WmuQwtDgBxSMHvSEkNtmRY52cLE3y6Tddt30h+w1RIlBLYXPyc7h1ife1ntsQL5kCxzGbKb5MbrhZ6IihYiIgIigTfw/dBNFAN7FIFBlERAWpzrrY4KLW9qAxqmiICIiAiIgKAU1ghBFSAQBZQEREBERBTW8rY6SjlGJUN2ND+OQM1hff8AiNGnAb9YaC5v1SbfDHX1+NztiJaxkYBc0ZxMFrF5Bzc4k+z2ZZZk3hLGHAtIBBFiDmCDqCOYVK7b4NU4TVsrqQ2hLu8hrjrFL8THDIHyycAT0xu+HOzXK1Nltm4KGERQjsL5HZvkda3E4/sNAMguI3q7CmS9dSNImbZ0rG3vIG6SMtnxttyzIHaBfttktpIa+Bs0WR9mSMnrRvtm0/uDzC9pTuyq1LHA7r9uhWxiCdw+0sbe+Q6Zg98fMPeA8RkbDvlTu83Y19LJ/iVDdga7pJQzWJ9/4rR8J94aC5OhNu33fbZMxCHrWbURgCWMc+yRnyn6HLsJ3Kdwl6rq0RFChQb2c1NYIQRUgEAWUBERAREQEREBERAREQEREBERAREQEREBaK6jjmjfFKwPY8FrmnQgreiCh8QpKrAK5ssV308hsL6Sx6mJ50EjdQ7zGRc1XTgeLw1cLJ4HcTHjzaRq1w5EHIhMcweGrhfBO3iY4ebSNHNPIg5gqlsMrarAK50U1308hu6wykZoJoxye3Qt8vhcr/Kf6j8f4vdzQQQRcHIg6EHkqQ222amwipZX0JLYeLIaiJztYnjnG7QemRDSbpoquOWNksTg9jwHNcNCDoVmspWSsfHI0PY8FrmkXBB1BUy6VZt5Ox+00NfTiaPJw6ssd8432zHeDqDzHmB7iojF8PqcBrWzwEvp5DZt72ezV0Mh5PAza7uv8QV0YHi0VVBHUQm7Hi4vqCDZzSORBBB8FuU1zGY3qvvREUqEREBERAREQEREBERAREQEREBERAREQEREBERAXibXbNQ18DoZcj7UcgHWjfycO0ciOYXtogo7Y3aKfB6p9DW3EJdnqRGXaTRnnG7n5nIhwN3seCAQQQRcEZgg6EHmuY292PjxCGws2dgJhkPbzY62rT9DY9xrHDdo8bwxppDTuc1twzpIpJA2/KOSNwDm65XNtMtFevJG/FYG97EKdmHyQyEGSWwhZ7xc1zTxgcg3W/gOa07lYHtw0F17PmkdHf4Oq3+5rz5rktm9hqzEpzWYn0jGGx4XXZJIBoxrdYmDyPZrxK5qeBrGtYxoa1oDWtAsAALAAJeJonN22IiKFiIiAiIgIiiSgkihw+Sy0oJIiICIiAiLBKDJKix11BzrqbAgkiIgIiICIoE3/wC6oJoocPkVJpQZREQEREBEUXOsgPdbxWQtYF1tQEREBQU1ghBFSAQBZQEREBERBglay662OCw1qA1qkiICIiAiIgKA7FNYIQRUgEAWUBERAREQRc6ygBdbHNugCAAsoiAiIgIiICIiAiIgIiICIiAiIgIiICIiAiIgIiICIiAiIgIiICIiAiIg/9k=;" vertex="1" parent="1">
          <mxGeometry x="810" y="85" width="20" height="20" as="geometry" />
        </mxCell>
        <mxCell id="LaCzYHrvshPpCWfQxyUo-24" value="" style="rounded=0;whiteSpace=wrap;html=1;shadow=1;fillColor=#f5f5f5;strokeColor=#666666;fontColor=#333333;" vertex="1" parent="1">
          <mxGeometry x="60" y="210" width="790" height="70" as="geometry" />
        </mxCell>
      </root>
    </mxGraphModel>
  </diagram>
</mxfile>
